<svg width="32" height="32" viewBox="0 0 32 32" fill="none" xmlns="http://www.w3.org/2000/svg">
<path d="M21.999 12C21.999 10.4087 21.3669 8.88258 20.2417 7.75736C19.1164 6.63214 17.5903 6 15.999 6C14.4077 6 12.8816 6.63214 11.7564 7.75736C10.6312 8.88258 9.99902 10.4087 9.99902 12C9.99902 19 6.99902 21 6.99902 21H24.999C24.999 21 21.999 19 21.999 12Z" stroke="black" stroke-width="1.5" stroke-linecap="round" stroke-linejoin="round"/>
<path d="M17.729 25C17.5532 25.3031 17.3009 25.5547 16.9972 25.7295C16.6936 25.9044 16.3494 25.9965 15.999 25.9965C15.6486 25.9965 15.3044 25.9044 15.0008 25.7295C14.6972 25.5547 14.4448 25.3031 14.269 25" stroke="black" stroke-width="1.5" stroke-linecap="round" stroke-linejoin="round"/>
</svg>
