<svg width="24" height="26" viewBox="0 0 24 26" fill="none" xmlns="http://www.w3.org/2000/svg">
<g filter="url(#filter0_d_206_96379)">
<rect width="24" height="24" rx="12" fill="black"/>
<path d="M17.5 15.5C17.5 15.7652 17.3946 16.0196 17.2071 16.2071C17.0196 16.3946 16.7652 16.5 16.5 16.5H7.5C7.23478 16.5 6.98043 16.3946 6.79289 16.2071C6.60536 16.0196 6.5 15.7652 6.5 15.5V10C6.5 9.73478 6.60536 9.48043 6.79289 9.29289C6.98043 9.10536 7.23478 9 7.5 9H9.5L10.5 7.5H13.5L14.5 9H16.5C16.7652 9 17.0196 9.10536 17.2071 9.29289C17.3946 9.48043 17.5 9.73478 17.5 10V15.5Z" stroke="white" stroke-linecap="round" stroke-linejoin="round"/>
<path d="M12 14.5C13.1046 14.5 14 13.6046 14 12.5C14 11.3954 13.1046 10.5 12 10.5C10.8954 10.5 10 11.3954 10 12.5C10 13.6046 10.8954 14.5 12 14.5Z" stroke="white" stroke-linecap="round" stroke-linejoin="round"/>
</g>
<defs>
<filter id="filter0_d_206_96379" x="0" y="0" width="24" height="26" filterUnits="userSpaceOnUse" color-interpolation-filters="sRGB">
<feFlood flood-opacity="0" result="BackgroundImageFix"/>
<feColorMatrix in="SourceAlpha" type="matrix" values="0 0 0 0 0 0 0 0 0 0 0 0 0 0 0 0 0 0 127 0" result="hardAlpha"/>
<feOffset dy="2"/>
<feColorMatrix type="matrix" values="0 0 0 0 0 0 0 0 0 0 0 0 0 0 0 0 0 0 0.043 0"/>
<feBlend mode="normal" in2="BackgroundImageFix" result="effect1_dropShadow_206_96379"/>
<feBlend mode="normal" in="SourceGraphic" in2="effect1_dropShadow_206_96379" result="shape"/>
</filter>
</defs>
</svg>