<svg width="64" height="64" viewBox="0 0 64 64" fill="none" xmlns="http://www.w3.org/2000/svg">
<g clip-path="url(#clip0_206_110208)">
<path d="M23.9997 50.6671C10.6663 54.6671 10.6663 44.0005 5.33301 42.6672M42.6663 58.6671V48.3471C42.7664 47.0756 42.5946 45.7973 42.1624 44.5973C41.7302 43.3972 41.0475 42.3029 40.1597 41.3872C48.533 40.4538 57.333 37.2805 57.333 22.7205C57.3323 18.9974 55.9002 15.417 53.333 12.7205C54.5486 9.46317 54.4627 5.86275 53.093 2.66715C53.093 2.66715 49.9463 1.73382 42.6663 6.61382C36.5544 4.95734 30.1117 4.95734 23.9997 6.61382C16.7197 1.73382 13.573 2.66715 13.573 2.66715C12.2033 5.86275 12.1174 9.46317 13.333 12.7205C10.7467 15.437 9.31307 19.0497 9.33301 22.8005C9.33301 37.2538 18.133 40.4272 26.5063 41.4672C25.629 42.3737 24.9524 43.4549 24.5205 44.6403C24.0886 45.8256 23.9112 47.0887 23.9997 48.3471V58.6671" stroke="white" stroke-width="6" stroke-linecap="round" stroke-linejoin="round"/>
</g>
<defs>
<clipPath id="clip0_206_110208">
<rect width="64" height="64" fill="white"/>
</clipPath>
</defs>
</svg>