<svg width="49" height="48" viewBox="0 0 49 48" fill="none" xmlns="http://www.w3.org/2000/svg">
<path d="M38.5 6H10.5C8.29086 6 6.5 7.79086 6.5 10V38C6.5 40.2091 8.29086 42 10.5 42H38.5C40.7091 42 42.5 40.2091 42.5 38V10C42.5 7.79086 40.7091 6 38.5 6Z" stroke="#722ED1" stroke-width="3" stroke-linecap="round" stroke-linejoin="round"/>
<path d="M17.5 20C19.1569 20 20.5 18.6569 20.5 17C20.5 15.3431 19.1569 14 17.5 14C15.8431 14 14.5 15.3431 14.5 17C14.5 18.6569 15.8431 20 17.5 20Z" stroke="#722ED1" stroke-width="3" stroke-linecap="round" stroke-linejoin="round"/>
<path d="M42.5 30L32.5 20L10.5 42" stroke="#722ED1" stroke-width="3" stroke-linecap="round" stroke-linejoin="round"/>
</svg>
