<svg width="64" height="64" viewBox="0 0 64 64" fill="none" xmlns="http://www.w3.org/2000/svg">
<path d="M42.667 21.334C46.9105 21.334 50.9801 23.0197 53.9807 26.0203C56.9813 29.0209 58.667 33.0905 58.667 37.334V56.0007H48.0003V37.334C48.0003 35.9195 47.4384 34.5629 46.4382 33.5627C45.438 32.5626 44.0815 32.0007 42.667 32.0007C41.2525 32.0007 39.896 32.5626 38.8958 33.5627C37.8956 34.5629 37.3337 35.9195 37.3337 37.334V56.0007H26.667V37.334C26.667 33.0905 28.3527 29.0209 31.3533 26.0203C34.3539 23.0197 38.4235 21.334 42.667 21.334Z" stroke="white" stroke-width="6" stroke-linecap="round" stroke-linejoin="round"/>
<path d="M15.9997 24H5.33301V56H15.9997V24Z" stroke="white" stroke-width="6" stroke-linecap="round" stroke-linejoin="round"/>
<path d="M10.6663 16.0007C13.6119 16.0007 15.9997 13.6128 15.9997 10.6673C15.9997 7.7218 13.6119 5.33398 10.6663 5.33398C7.72082 5.33398 5.33301 7.7218 5.33301 10.6673C5.33301 13.6128 7.72082 16.0007 10.6663 16.0007Z" stroke="white" stroke-width="6" stroke-linecap="round" stroke-linejoin="round"/>
</svg>