<svg width="17" height="16" viewBox="0 0 17 16" fill="none" xmlns="http://www.w3.org/2000/svg">
<g clip-path="url(#clip0_791_33427)">
<path d="M15.834 2.66699V6.66699H11.834" stroke="currentColor" stroke-width="1.5" stroke-linecap="round" stroke-linejoin="round"/>
<path d="M1.16602 13.333V9.33301H5.16602" stroke="currentColor" stroke-width="1.5" stroke-linecap="round" stroke-linejoin="round"/>
<path d="M2.83935 6.00038C3.17746 5.0449 3.7521 4.19064 4.50966 3.51732C5.26722 2.844 6.18299 2.37355 7.17154 2.14988C8.16009 1.92621 9.18918 1.9566 10.1628 2.23823C11.1364 2.51985 12.0229 3.04352 12.7393 3.76038L15.8327 6.66704M1.16602 9.33371L4.25935 12.2404C4.97585 12.9572 5.86226 13.4809 6.83589 13.7625C7.80951 14.0441 8.83861 14.0745 9.82716 13.8509C10.8157 13.6272 11.7315 13.1568 12.489 12.4834C13.2466 11.8101 13.8212 10.9559 14.1593 10.0004" stroke="currentColor" stroke-width="1.5" stroke-linecap="round" stroke-linejoin="round"/>
</g>
<defs>
<clipPath id="clip0_791_33427">
<rect width="16" height="16" fill="white" transform="translate(0.5)"/>
</clipPath>
</defs>
</svg>
