<svg width="66" height="64" viewBox="0 0 66 64" fill="none" xmlns="http://www.w3.org/2000/svg">
<path d="M62.3337 7.99947C59.78 9.80074 56.9526 11.1784 53.9603 12.0795C52.3543 10.2328 50.2199 8.92398 47.8457 8.32994C45.4716 7.7359 42.9723 7.88533 40.6859 8.75801C38.3994 9.6307 36.4362 11.1845 35.0616 13.2094C33.6871 15.2342 32.9675 17.6324 33.0003 20.0795V22.7461C28.314 22.8677 23.6704 21.8283 19.483 19.7207C15.2956 17.613 11.6945 14.5025 9.00033 10.6661C9.00033 10.6661 -1.66634 34.6661 22.3337 45.3328C16.8417 49.0607 10.2994 50.9299 3.66699 50.6661C27.667 63.9995 57.0003 50.6661 57.0003 19.9995C56.9979 19.2567 56.9265 18.5157 56.787 17.7861C59.5086 15.1021 61.4292 11.7134 62.3337 7.99947Z" stroke="white" stroke-width="6" stroke-linecap="round" stroke-linejoin="round"/>
</svg>