<svg width="17" height="16" viewBox="0 0 17 16" fill="none" xmlns="http://www.w3.org/2000/svg">
<g clip-path="url(#clip0_654_3992)">
<path d="M16.166 2.66663V6.66663H12.166" stroke="white" stroke-width="1.5" stroke-linecap="round" stroke-linejoin="round"/>
<path d="M1.5 13.3334V9.33337H5.5" stroke="white" stroke-width="1.5" stroke-linecap="round" stroke-linejoin="round"/>
<path d="M3.17333 6.00001C3.51144 5.04453 4.08609 4.19028 4.84364 3.51696C5.6012 2.84363 6.51698 2.37319 7.50552 2.14952C8.49407 1.92584 9.52317 1.95624 10.4968 2.23786C11.4704 2.51948 12.3568 3.04315 13.0733 3.76001L16.1667 6.66668M1.5 9.33334L4.59333 12.24C5.30983 12.9569 6.19625 13.4805 7.16987 13.7622C8.1435 14.0438 9.17259 14.0742 10.1611 13.8505C11.1497 13.6268 12.0655 13.1564 12.823 12.4831C13.5806 11.8097 14.1552 10.9555 14.4933 10" stroke="white" stroke-width="1.5" stroke-linecap="round" stroke-linejoin="round"/>
</g>
<defs>
<clipPath id="clip0_654_3992">
<rect width="16" height="16" fill="white" transform="translate(0.833008)"/>
</clipPath>
</defs>
</svg>
