<svg width="17" height="16" viewBox="0 0 17 16" fill="none" xmlns="http://www.w3.org/2000/svg">
<g clip-path="url(#clip0_876_85623)">
<path d="M15.708 2.66663V6.66663H11.708" stroke="black" stroke-width="1.5" stroke-linecap="round" stroke-linejoin="round"/>
<path d="M1.04199 13.3334V9.33337H5.04199" stroke="black" stroke-width="1.5" stroke-linecap="round" stroke-linejoin="round"/>
<path d="M2.71533 6.00001C3.05344 5.04453 3.62808 4.19028 4.38564 3.51696C5.14319 2.84363 6.05897 2.37319 7.04752 2.14952C8.03606 1.92584 9.06516 1.95624 10.0388 2.23786C11.0124 2.51948 11.8988 3.04315 12.6153 3.76001L15.7087 6.66668M1.04199 9.33334L4.13533 12.24C4.85182 12.9569 5.73824 13.4805 6.71186 13.7622C7.68549 14.0438 8.71459 14.0742 9.70313 13.8505C10.6917 13.6268 11.6075 13.1564 12.365 12.4831C13.1226 11.8097 13.6972 10.9555 14.0353 10" stroke="black" stroke-width="1.5" stroke-linecap="round" stroke-linejoin="round"/>
</g>
<defs>
<clipPath id="clip0_876_85623">
<rect width="16" height="16" fill="white" transform="translate(0.375)"/>
</clipPath>
</defs>
</svg>
